<svg xmlns="http://www.w3.org/2000/svg" viewBox="0 0 512 512" width="512" height="512"><path d="M309.62 98.317h-38.243V78.539h9.288c8.284 0 15-6.716 15-15V15c0-8.284-6.716-15-15-15h-48.577c-8.284 0-15 6.716-15 15v9.295c-.17-.006-.335-.026-.506-.026h-44.306c-21.593 0-39.16 17.567-39.16 39.16v9.235c0 8.284 6.716 15 15 15s15-6.716 15-15v-9.235c0-5.051 4.109-9.16 9.16-9.16h44.306c.171 0 .337-.02.506-.026v9.295c0 8.284 6.716 15 15 15h9.289v19.778h-38.244c-8.284 0-15 6.716-15 15v21.463H324.62v-21.462c0-8.284-6.716-15-15-15zM328.72 164.78H184.032c-28.174 3.114-50.164 27.056-50.164 56.046V497c0 8.284 6.716 15 15 15h215.016c8.284 0 15-6.716 15-15V220.826c0-28.99-21.99-52.932-50.164-56.046z" data-original="#000000" class="active-path" data-old_color="#000000" fill="#FFF"/></svg>