<svg id="Capa_1" xmlns="http://www.w3.org/2000/svg" viewBox="0 0 225 225"><style>.st0{fill:#fff}</style><path class="st0" d="M225 101.4v.2c0 7-5.7 12.7-12.7 12.7h-1c-.9 6.3-3.4 19.8-9.6 34.6-6.7 15.9-15.6 23.8-19.6 26.7v7.1c0 3.3-1.9 6.2-4.9 7.5-1.1.5-2.3.7-3.4.7-2 0-3.9-.7-5.5-2.1l-7.8-7h-96l-7.8 7c-2.5 2.2-5.9 2.8-8.9 1.4-3-1.3-4.9-4.2-4.9-7.5v-7.1c-4-2.9-12.9-10.9-19.6-26.7-6.2-14.8-8.7-28.4-9.6-34.6h-1c-7 0-12.7-5.7-12.7-12.7v-.2c0-7 5.7-12.7 12.7-12.7H182v-6.1c0-2.2 1.8-4 4-4s4 1.8 4 4v6.1h3.6V51.8c0-5.4-4.4-9.7-9.7-9.7h-.3c-5.4 0-9.7 4.4-9.7 9.7v5.8c0 2.2-1.8 4-4 4s-4-1.8-4-4v-5.8c0-9.8 8-17.7 17.7-17.7h.3c9.8 0 17.7 8 17.7 17.7v36.9h3.4v-6.1c0-2.2 1.8-4 4-4s4 1.8 4 4v6.1c6.7.4 12 5.9 12 12.7z"/></svg>