<svg xmlns="http://www.w3.org/2000/svg" viewBox="0 0 512 512" width="512" height="512"><path d="M407.992 306.752c.064-2.752.064-2.752-2.436-2.752h-293.48c-8.084.188-8.084.54-8.084 2.752V320c0 7.876 0 7.876 8.084 8l-.084.936V364h136v-36h16v36h136v-36h5.376c2.64-.188 2.64-.188 2.624-8v-13.248zM208.076 352h-36a8 8 0 0 1 0-16h36c4.416 0 8 3.584 8 8s-3.584 8-8 8zm144 0h-36a8 8 0 0 1 0-16h36c4.416 0 8 3.584 8 8s-3.584 8-8 8zM263.992 380v112h-16V380h-136v91.664c0 9.54 8 17.508 16 19.5V504c-.084 8-.084 8 8.084 8h244.752c3 0 3 0 3.164-8v-12.704c8-1.736 16-9.86 16-19.632V380h-136zm-32 64c0 4.416-3.584 8-8 8s-8-3.584-8-8v-32c0-4.416 3.584-8 8-8s8 3.584 8 8v32zm64 0c0 4.416-3.584 8-8 8s-8-3.584-8-8v-32c0-4.416 3.584-8 8-8s8 3.584 8 8v32zM297.42 138.264l-40.008-40.012a7.998 7.998 0 0 0-11.312 0 7.998 7.998 0 0 0 0 11.312l40.008 40.012a7.968 7.968 0 0 0 5.656 2.344c2.048 0 4.092-.78 5.656-2.344a7.998 7.998 0 0 0 0-11.312z" data-original="#000000" class="active-path" data-old_color="#000000" fill="#FFF"/><path d="M351.992 0h-192c-11.048 0-20 8.952-20 20v240c0 11.048 8.952 20 20 20h192c11.048 0 20-8.952 20-20V20c0-11.048-8.952-20-20-20zm-4 236.728L215.3 101.988c-3.124-3.124-7.168-3.124-10.292 0-3.124 3.124-2.608 10.188.516 13.312L344.728 256H163.992V31.544l60.068 58.024c1.568 1.564 4.628 2.344 6.676 2.344s4.608-.78 6.172-2.344c3.124-3.124 3.376-6.188.248-9.312l-58-56.256h168.836v212.728z" data-original="#000000" class="active-path" data-old_color="#000000" fill="#FFF"/></svg>