<svg xmlns="http://www.w3.org/2000/svg" width="512" height="512" viewBox="0 0 31.342 31.342"><path d="M19.438 6.188l.719.295-7.687 18.673-.718-.295 7.686-18.673zm-2.421.747l-.718-.295-3.541 8.603.718.295 3.541-8.603zm-2.54 17.086l.718.295 3.54-8.604-.718-.295-3.54 8.604zm11.669-2.771a1.772 1.772 0 0 1-1.845 1.141c.604.426.904 1.197.688 1.945a1.773 1.773 0 0 1-1.995 1.25 1.773 1.773 0 0 1-2.42 2.508h-.001a1.774 1.774 0 0 1-.755 2.299 1.773 1.773 0 0 1-2.293-.529 1.774 1.774 0 0 1-1.786 1.478 1.772 1.772 0 0 1-1.72-1.592c-.046-.013-.092-.022-.137-.037a1.77 1.77 0 0 1-3.122-1.545 1.775 1.775 0 0 1-2.218-2.658 1.812 1.812 0 0 1-2.119-1.098 1.809 1.809 0 0 1 .553-2.063 1.77 1.77 0 0 1-1.646-1.296 1.77 1.77 0 0 1 .75-1.957 1.778 1.778 0 0 1-1.352-1.551 1.777 1.777 0 0 1 1.297-1.881 1.773 1.773 0 0 1-1.295-1.876 1.774 1.774 0 0 1 1.741-1.603A1.772 1.772 0 0 1 5.35 10.14a1.773 1.773 0 0 1 1.917-1.375 1.797 1.797 0 0 1-.701-2.315 1.798 1.798 0 0 1 2.367-.858l.006-.009a1.83 1.83 0 0 1-.069-2.381 1.83 1.83 0 0 1 2.338-.426 1.775 1.775 0 0 1 3.088-1.633A1.775 1.775 0 0 1 15.952 0c.88 0 1.604.64 1.749 1.479l.061.017a1.778 1.778 0 0 1 3.017 1.754 1.778 1.778 0 0 1 1.978.208c.695.585.821 1.586.337 2.329.85-.173 1.719.29 2.023 1.129.27.748.004 1.553-.597 2.013a1.777 1.777 0 0 1 1.617 1.11 1.776 1.776 0 0 1-.792 2.217 1.775 1.775 0 0 1 1.262 1.944 1.775 1.775 0 0 1-1.211 1.439l-.001.059a1.77 1.77 0 0 1 1.204 1.391 1.774 1.774 0 0 1-1.256 1.99 1.766 1.766 0 0 1 .803 2.171zM8.736 25.3a2.964 2.964 0 0 1-.049-.082l.037.095c.004-.002.008-.008.012-.013zm15.109-9.698c0-7.088-3.603-12.854-8.029-12.854-4.427 0-8.03 5.767-8.03 12.854 0 7.087 3.603 12.854 8.03 12.854 4.426.001 8.029-5.767 8.029-12.854z" data-original="#000000" class="active-path" data-old_color="#000000" fill="#FFF"/></svg>