<svg xmlns="http://www.w3.org/2000/svg" height="512" viewBox="0 0 58 56" width="512"><g fill="#000" fill-rule="nonzero"><path d="M51.89 34.11l-13.2 4.95a6.969 6.969 0 0 1 2.66 8.87l11.96-4.49a4.766 4.766 0 0 0 1.22-.91A4.922 4.922 0 0 0 56 39a4.985 4.985 0 0 0-4.11-4.89zm-11.9 10.72v-.01A4.99 4.99 0 0 0 35 40H5a5 5 0 0 0-5 5 .97.97 0 0 0 .01.17v.01A4.99 4.99 0 0 0 5 50h30a5 5 0 0 0 5-5 .97.97 0 0 0-.01-.17zM36 46H4a1 1 0 0 1 0-2h32a1 1 0 0 1 0 2zm3.99-13.17v-.01A4.99 4.99 0 0 0 35 28H5a5 5 0 0 0-5 5 .97.97 0 0 0 .01.17v.01A4.99 4.99 0 0 0 5 38h30a4.871 4.871 0 0 0 2.2-.51.355.355 0 0 1 .09-.04c.46-.237.88-.548 1.24-.92A4.922 4.922 0 0 0 40 33a.97.97 0 0 0-.01-.17zM36 34H4a1 1 0 0 1 0-2h32a1 1 0 0 1 0 2zm3.99-13.17v-.01A4.99 4.99 0 0 0 35 16H5a4.709 4.709 0 0 0-1.25.16.689.689 0 0 0-.08.03 4.888 4.888 0 0 0-2.2 1.27A4.962 4.962 0 0 0 0 21a.97.97 0 0 0 .01.17v.01A4.99 4.99 0 0 0 5 26h30a4.871 4.871 0 0 0 2.2-.51.355.355 0 0 1 .09-.04c.46-.237.88-.548 1.24-.92A4.922 4.922 0 0 0 40 21a.97.97 0 0 0-.01-.17zM36 22H4a1 1 0 0 1 0-2h32a1 1 0 0 1 0 2zm15-12H21c-.429 0-.856.057-1.27.17-.4.13-5.28 1.96-10.26 3.83H35a7 7 0 0 1 6.36 9.92l4.44-1.66c3.68-1.39 6.06-2.28 7.41-2.78.04-.02.09-.05.15-.08a4.145 4.145 0 0 0 1.17-.87A4.922 4.922 0 0 0 56 15a5 5 0 0 0-5-5zm.9 12.1c-1.34.5-3.11 1.17-5.4 2.03l-7.81 2.93A7 7 0 0 1 42 33a7.115 7.115 0 0 1-.64 2.93l11.84-4.45c.05-.02.1-.05.16-.08a4.145 4.145 0 0 0 1.17-.87A4.922 4.922 0 0 0 56 27a5 5 0 0 0-4.1-4.9zM8 4a1 1 0 0 0 1-1V1a1 1 0 1 0-2 0v2a1 1 0 0 0 1 1zM8 6a1 1 0 0 0-1 1v2a1 1 0 1 0 2 0V7a1 1 0 0 0-1-1zM6 4H4a1 1 0 1 0 0 2h2a1 1 0 1 0 0-2zM12 4h-2a1 1 0 1 0 0 2h2a1 1 0 0 0 0-2zM56.207 52.793a1 1 0 0 0-1.414 1.414l1.5 1.5a1 1 0 0 0 1.414-1.414zM51.707 48.293a1 1 0 0 0-1.414 1.414l1.5 1.5a1 1 0 0 0 1.414-1.414zM51.793 52.793l-1.5 1.5a1 1 0 1 0 1.414 1.414l1.5-1.5a1 1 0 0 0-1.414-1.414zM55.5 51.5a1 1 0 0 0 .707-.293l1.5-1.5a1 1 0 0 0-1.414-1.414l-1.5 1.5A1 1 0 0 0 55.5 51.5z" data-original="#000000" class="active-path" data-old_color="#000000" fill="#FFF"/></g></svg>