<svg xmlns="http://www.w3.org/2000/svg" viewBox="0 0 448 448" width="512" height="512"><path d="M256.4 83.712c13.984 23.968 32.08 44.896 53.28 61.856l7.872-8.064c-15.936-22.8-23.328-48.8-29.568-77.488L304 48V0H188.496A31.984 31.984 0 0 0 166.8 8.48l-49.648 45.792A16.01 16.01 0 0 0 112 66.032V80c0 8.832 7.168 16 16 16h32v32c-14.752 29.76-34.16 72.704-40.416 87.008C99.552 260.72 96 282.88 96 330.976c0 33.696 4.576 65.424 12.608 93.36C112.688 438.48 125.232 448 139.28 448h126.432c14.576 0 27.136-10.368 31.024-25.152 4.976-18.912 7.76-39.904 7.76-62.016 0-35.84-4.16-55.712-22.272-88.48-12.896-21.168-25.248-35.296-21.072-73.472C264.08 172.224 253.248 140 240 128V96l16.4-12.288zM254.208 288h-124.08c2.496-18.592 7.76-35.056 18.768-60.16 4.432-10.112 18.208-40.736 31.136-67.84h43.296c3.792 8.8 7.408 22.656 6.016 35.392-5.488 50.176 10.768 67.936 24.864 92.608zM344 0h-24v48h24c4.416 0 8-3.584 8-8V8c0-4.416-3.584-8-8-8z" data-original="#000000" class="active-path" data-old_color="#000000" fill="#FFF"/></svg>