<svg xmlns="http://www.w3.org/2000/svg" height="512" viewBox="-23 0 446 446.36" width="512"><path d="M8.18 430.36a8 8 0 0 0-8 8v8h144v-8a8 8 0 0 0-8-8zm0 0M16.18 190.36h112v224h-112zm0 0M270.867 56.504c21.215-5.969 33.633-27.95 27.793-49.2L296.637 0 47.836 53.113C29.422 57.125 16.262 73.387 16.18 92.23v82.13h112v-59.786a24.05 24.05 0 0 1 17.543-23.101zm0 0M324.766 178.969L144.18 227.383v82.8l255.398-68.44-6.23-23.2c-8.055-29.832-38.723-47.527-68.582-39.574zm0 0M388.27 261.375l-77.282 20.703 2.063 7.73a8.001 8.001 0 0 0 3.734 4.86 7.994 7.994 0 0 0 6.074.797l61.817-16.57a7.996 7.996 0 0 0 5.664-9.79zm0 0M336.18 414.36c0 17.671 14.328 32 32 32s32-14.329 32-32c0-12.298-17.602-43.423-32-65.598-14.399 22.175-32 53.3-32 65.597zm0 0" data-original="#000000" class="active-path" data-old_color="#000000" fill="#FFF"/></svg>