<svg xmlns="http://www.w3.org/2000/svg" viewBox="0 0 512 512" width="512" height="512"><path d="M407.468 173.3c-24.034-17.828-51.731-29.147-81.106-34.399a14.945 14.945 0 0 0 2.019-7.5c0-8.299-6.728-15.027-15.027-15.027h-11.325C294.677 50.991 239.057 0 171.743 0 99.443 0 40.624 58.819 40.624 131.119v365.854c0 8.299 6.728 15.027 15.027 15.027s15.027-6.728 15.027-15.027V131.119c0-55.728 45.337-101.064 101.064-101.064 50.719 0 92.826 37.557 99.985 86.32h-9.412c-8.299 0-15.027 6.728-15.027 15.027 0 2.602.662 5.048 1.826 7.183-30.056 5.105-58.392 16.518-82.92 34.717-5.939 4.406-2.78 13.854 4.614 13.854h232.044c7.397-.001 10.556-9.45 4.616-13.856z" data-original="#000000" class="active-path" data-old_color="#000000" fill="#FFF"/><path d="M171.743 295.902c-8.299 0-15.027 6.728-15.027 15.027v38.099c0 8.299 6.728 15.027 15.027 15.027s15.027-6.728 15.027-15.027v-38.099c0-8.299-6.727-15.027-15.027-15.027zM245.898 323.708c-8.299 0-15.027 6.728-15.027 15.027v38.1c0 8.299 6.728 15.027 15.027 15.027s15.027-6.728 15.027-15.027v-38.1c0-8.299-6.728-15.027-15.027-15.027zM330.192 296.908c-8.299 0-15.027 6.728-15.027 15.027v38.099c0 8.299 6.728 15.027 15.027 15.027s15.027-6.728 15.027-15.027v-38.099c0-8.3-6.727-15.027-15.027-15.027zM412.32 333.476c-8.299 0-15.027 6.728-15.027 15.027v38.099c0 8.299 6.728 15.027 15.027 15.027s15.027-6.728 15.027-15.027v-38.099c0-8.299-6.728-15.027-15.027-15.027zM204.299 408.282c-8.299 0-15.027 6.728-15.027 15.027v38.099c0 8.299 6.728 15.027 15.027 15.027s15.027-6.728 15.027-15.027v-38.099c0-8.299-6.727-15.027-15.027-15.027zM286.59 391.499c-8.299 0-15.027 6.728-15.027 15.027v38.099c0 8.299 6.728 15.027 15.027 15.027s15.027-6.728 15.027-15.027v-38.099c0-8.299-6.728-15.027-15.027-15.027zM366.088 394.715c-8.299 0-15.027 6.728-15.027 15.027v38.099c0 8.299 6.728 15.027 15.027 15.027s15.027-6.728 15.027-15.027v-38.099c0-8.299-6.727-15.027-15.027-15.027zM456.349 212.588H116.831c-8.299 0-15.027 6.728-15.027 15.027s6.728 15.027 15.027 15.027H456.35c8.299 0 15.026-6.728 15.026-15.027s-6.728-15.027-15.027-15.027z" data-original="#000000" class="active-path" data-old_color="#000000" fill="#FFF"/></svg>