<svg xmlns="http://www.w3.org/2000/svg" viewBox="0 0 512 512" width="512" height="512"><path d="M316 0c-24.508 0-46.305 11.817-60 30.052C242.305 11.817 220.508 0 196 0c-41.355 0-75 33.645-75 75h30c0-24.813 20.187-45 45-45s45 20.187 45 45v47h30V75c0-24.813 20.187-45 45-45s45 20.187 45 45h30c0-41.355-33.645-75-75-75zM121 152v30h31.509c6.969 34.192 37.272 60 73.491 60h60c36.219 0 66.522-25.808 73.491-60H391v-30H121zM32 272v30h31.509c6.968 34.192 37.271 60 73.491 60h74v30h90v-30h74c36.219 0 66.522-25.808 73.491-60H480v-30H32zM419.491 482c-6.969-34.192-37.272-60-73.491-60H166c-36.219 0-66.522 25.808-73.491 60H60v30h391v-30h-31.509z" data-original="#000000" class="active-path" data-old_color="#000000" fill="#FFF"/></svg>