<svg xmlns="http://www.w3.org/2000/svg" height="512" viewBox="0 0 512 512" width="512"><path d="M482 211H210v60h272c16.57 0 30-13.434 30-30 0-16.57-13.43-30-30-30zm0 0M15 60h180c8.285 0 15-6.715 15-15V30c0-16.57-13.43-30-30-30H30C13.43 0 0 13.43 0 30v15c0 8.285 6.715 15 15 15zm0 0M30 90h150v181H30zm0 0M30.027 301c.16 33.414 20.032 63.496 50.79 76.672 13.21 5.668 23.437 16.14 28.78 29.484 5.333 13.36 5.157 27.992-.495 41.223l-17.887 42.719c-1.992 4.629-1.508 9.945 1.262 14.164A15.024 15.024 0 0 0 105 512h272c8.29 0 15-6.71 15-15v-52.395c-14.328 4.07-29.387 6.395-45 6.395-85.918 0-158.629-66.031-166.238-150zm0 0" data-original="#000000" class="active-path" data-old_color="#000000" fill="#FFF"/><path d="M347 421c69.309 0 125.91-52.684 133.484-120H211.516C219.09 368.316 277.69 421 347 421zm0 0" data-original="#000000" class="active-path" data-old_color="#000000" fill="#FFF"/></svg>