<svg xmlns="http://www.w3.org/2000/svg" viewBox="0 0 511.999 511.999" width="512" height="512"><path d="M0 249.986v6.205c0 91.496 74.438 165.933 165.934 165.933h45.039v44.848c0 24.827 20.199 45.026 45.026 45.026s45.026-20.199 45.026-45.026v-44.848h45.039c91.496 0 165.934-74.437 165.934-165.933v-6.205H0zM302.994 0c-34.185 0-61.995 27.811-61.995 61.995v157.989H271V61.995c0-17.641 14.353-31.993 31.993-31.993s31.993 14.353 31.993 31.993v37.99h30.001v-37.99C364.989 27.811 337.178 0 302.994 0zM334.988 159.934v60.051h30.001v-30.049h49.749v-30.002zM97.262 159.934v30.002h49.749v30.049h30.001v-60.051z" data-original="#000000" class="active-path" data-old_color="#000000" fill="#FFF"/></svg>