<svg xmlns="http://www.w3.org/2000/svg" viewBox="0 0 512 512" width="512" height="512"><path d="M503.467 460.8h-8.533v-25.6a8.533 8.533 0 0 0-8.533-8.533h-8.533V8.533A8.533 8.533 0 0 0 469.335 0H42.667a8.533 8.533 0 0 0-8.533 8.533v418.133H25.6a8.533 8.533 0 0 0-8.533 8.533v25.6H8.533A8.535 8.535 0 0 0 0 469.333v34.133A8.533 8.533 0 0 0 8.533 512h494.933a8.533 8.533 0 0 0 8.533-8.533v-34.133a8.532 8.532 0 0 0-8.532-8.534zM110.933 213.333h-25.6a8.533 8.533 0 0 0-8.533 8.533v42.667a8.533 8.533 0 0 0 8.533 8.533h25.6v153.6H51.2v-409.6h59.733v196.267zM384 426.667H128v-409.6h119.467v26.368c-28.928 4.779-51.2 33.365-51.2 67.499a8.533 8.533 0 0 0 8.533 8.533h102.4a8.533 8.533 0 0 0 8.533-8.533c0-34.133-22.272-62.72-51.2-67.499V17.067H384v409.6zm76.8 0h-59.733v-153.6h25.6a8.533 8.533 0 0 0 8.533-8.533v-42.667a8.533 8.533 0 0 0-8.533-8.533h-25.6V17.067H460.8v409.6z" data-original="#000000" class="active-path" data-old_color="#000000" fill="#FFF"/><path d="M238.933 136.533a8.533 8.533 0 0 0-8.533 8.533v8.533a8.533 8.533 0 0 0 17.066 0v-8.533a8.533 8.533 0 0 0-8.533-8.533zM238.933 179.2a8.533 8.533 0 0 0-8.533 8.533v8.533c0 4.713 3.82 8.533 8.533 8.533s8.533-3.82 8.533-8.533v-8.533a8.533 8.533 0 0 0-8.533-8.533zM238.933 221.867a8.533 8.533 0 0 0-8.533 8.533v8.533c0 4.713 3.82 8.533 8.533 8.533s8.533-3.82 8.533-8.533V230.4a8.532 8.532 0 0 0-8.533-8.533zM238.933 264.533a8.533 8.533 0 0 0-8.533 8.533v8.533c0 4.713 3.82 8.533 8.533 8.533s8.533-3.82 8.533-8.533v-8.533a8.533 8.533 0 0 0-8.533-8.533zM204.8 136.533a8.533 8.533 0 0 0-8.533 8.533v8.533a8.533 8.533 0 0 0 17.066 0v-8.533a8.533 8.533 0 0 0-8.533-8.533zM204.8 179.2a8.533 8.533 0 0 0-8.533 8.533v8.533c0 4.713 3.82 8.533 8.533 8.533s8.533-3.82 8.533-8.533v-8.533a8.533 8.533 0 0 0-8.533-8.533zM204.8 221.867a8.533 8.533 0 0 0-8.533 8.533v8.533c0 4.713 3.82 8.533 8.533 8.533s8.533-3.82 8.533-8.533V230.4a8.533 8.533 0 0 0-8.533-8.533zM204.8 264.533a8.533 8.533 0 0 0-8.533 8.533v8.533c0 4.713 3.82 8.533 8.533 8.533s8.533-3.82 8.533-8.533v-8.533a8.533 8.533 0 0 0-8.533-8.533zM273.067 136.533a8.533 8.533 0 0 0-8.533 8.533v8.533a8.533 8.533 0 0 0 17.066 0v-8.533a8.534 8.534 0 0 0-8.533-8.533zM273.067 179.2a8.533 8.533 0 0 0-8.533 8.533v8.533a8.533 8.533 0 0 0 17.066 0v-8.533a8.534 8.534 0 0 0-8.533-8.533zM273.067 221.867a8.533 8.533 0 0 0-8.533 8.533v8.533a8.533 8.533 0 0 0 17.066 0V230.4a8.533 8.533 0 0 0-8.533-8.533zM273.067 264.533a8.533 8.533 0 0 0-8.533 8.533v8.533a8.533 8.533 0 0 0 17.066 0v-8.533a8.534 8.534 0 0 0-8.533-8.533zM307.2 136.533a8.533 8.533 0 0 0-8.533 8.533v8.533a8.533 8.533 0 0 0 17.066 0v-8.533a8.533 8.533 0 0 0-8.533-8.533zM307.2 179.2a8.533 8.533 0 0 0-8.533 8.533v8.533c0 4.713 3.82 8.533 8.533 8.533s8.533-3.82 8.533-8.533v-8.533a8.533 8.533 0 0 0-8.533-8.533zM307.2 221.867a8.533 8.533 0 0 0-8.533 8.533v8.533c0 4.713 3.82 8.533 8.533 8.533s8.533-3.82 8.533-8.533V230.4a8.533 8.533 0 0 0-8.533-8.533zM307.2 264.533a8.533 8.533 0 0 0-8.533 8.533v8.533c0 4.713 3.82 8.533 8.533 8.533s8.533-3.82 8.533-8.533v-8.533a8.533 8.533 0 0 0-8.533-8.533z" data-original="#000000" class="active-path" data-old_color="#000000" fill="#FFF"/></svg>