<svg id="Capa_1" xmlns="http://www.w3.org/2000/svg" viewBox="0 0 512 512"><style>.st0{fill:#fff}</style><path class="st0" d="M106 482c-8.3 0-15 6.7-15 15s6.7 15 15 15h300c8.3 0 15-6.7 15-15s-6.7-15-15-15h-15v-47H121v47h-15zM91 345v45c0 8.3 6.7 15 15 15h300c8.3 0 15-6.7 15-15v-45c0-8.3-6.7-15-15-15H106c-8.3 0-15 6.7-15 15zM136.1 30H376c-13.8-18.2-35.5-30-60-30H196c-24.5 0-46.2 11.8-59.9 30zM91 75c0 8.3 6.7 15 15 15h15v210h270V90h15c8.3 0 15-6.7 15-15s-6.7-15-15-15H106c-8.3 0-15 6.7-15 15zm195 165c8.3 0 15 6.7 15 15s-6.7 15-15 15h-60c-8.3 0-15-6.7-15-15s6.7-15 15-15h60zm0-60c8.3 0 15 6.7 15 15s-6.7 15-15 15h-60c-8.3 0-15-6.7-15-15s6.7-15 15-15h60zm0-60c8.3 0 15 6.7 15 15s-6.7 15-15 15h-60c-8.3 0-15-6.7-15-15s6.7-15 15-15h60z"/></svg>